<svg width="21" height="22" viewBox="0 0 21 22" fill="none" xmlns="http://www.w3.org/2000/svg">
<g clip-path="url(#clip0)">
<path d="M12.7473 19.4876L10.8384 21.4104L8.92949 19.4876C5.17765 18.6149 2.37688 15.2261 2.37688 11.1827C2.37688 6.47801 6.16765 2.65967 10.8384 2.65967C15.5092 2.65967 19.3 6.47801 19.3 11.1827C19.3 15.2261 16.4992 18.6149 12.7473 19.4876ZM5.78095 14.0942C7.02311 15.9608 8.88803 17.1489 10.9738 17.1489C13.0587 17.1489 14.9245 15.9616 16.1658 14.0942C14.7576 12.7685 12.9013 12.0323 10.9738 12.0351C9.04602 12.0321 7.18939 12.7683 5.78095 14.0942ZM10.8384 10.3304C11.5117 10.3304 12.1573 10.061 12.6334 9.58153C13.1094 9.10202 13.3769 8.45165 13.3769 7.77351C13.3769 7.09538 13.1094 6.44501 12.6334 5.9655C12.1573 5.48598 11.5117 5.21659 10.8384 5.21659C10.1652 5.21659 9.51951 5.48598 9.04345 5.9655C8.5674 6.44501 8.29995 7.09538 8.29995 7.77351C8.29995 8.45165 8.5674 9.10202 9.04345 9.58153C9.51951 10.061 10.1652 10.3304 10.8384 10.3304Z" fill="white"/>
</g>
<defs>
<clipPath id="clip0">
<rect width="20.3077" height="20.4554" fill="white" transform="translate(0.68457 0.955078)"/>
</clipPath>
</defs>
</svg>
