<svg width="28" height="28" viewBox="0 0 28 28" fill="none" xmlns="http://www.w3.org/2000/svg">
<path d="M14 0.666748C21.5111 0.666748 27.3333 6.16861 27.3333 13.6001C27.3333 21.0315 21.5111 26.5334 14 26.5334C12.6509 26.5334 11.3565 26.3552 10.1404 26.0208C9.90399 25.9557 9.65259 25.9742 9.42826 26.0733L6.78179 27.2415C6.08952 27.5471 5.30806 27.0547 5.28486 26.2983L5.21226 23.9263C5.20332 23.6343 5.07186 23.361 4.85406 23.1662C2.25972 20.8461 0.666656 17.4872 0.666656 13.6001C0.666656 6.16861 6.48892 0.666748 14 0.666748ZM5.99338 17.3824C5.61752 17.9787 6.35052 18.6507 6.91205 18.2246L11.1192 15.0316C11.4038 14.8156 11.797 14.8145 12.0828 15.0288L15.198 17.3652C16.1328 18.0664 17.4669 17.8202 18.09 16.8317L22.0066 10.6178C22.3824 10.0214 21.6494 9.34944 21.0879 9.77557L16.8808 12.9685C16.5962 13.1845 16.2029 13.1856 15.9171 12.9712L12.802 10.6349C11.8672 9.93384 10.533 10.18 9.91005 11.1685L5.99338 17.3824Z" fill="white"/>
</svg>
