<svg width="28" height="28" viewBox="0 0 28 28" fill="none" xmlns="http://www.w3.org/2000/svg">
<path d="M15.8771 23.2135C16.4786 23.2135 17.0555 22.9746 17.4809 22.5492C17.9062 22.1238 18.1452 21.5469 18.1452 20.9454C18.1452 20.3438 17.9062 19.7669 17.4809 19.3416C17.0555 18.9162 16.4786 18.6772 15.8771 18.6772C15.2755 18.6772 14.6986 18.9162 14.2732 19.3416C13.8479 19.7669 13.6089 20.3438 13.6089 20.9454C13.6089 21.5469 13.8479 22.1238 14.2732 22.5492C14.6986 22.9746 15.2755 23.2135 15.8771 23.2135ZM7.93855 23.2135C8.5401 23.2135 9.11701 22.9746 9.54237 22.5492C9.96773 22.1238 10.2067 21.5469 10.2067 20.9454C10.2067 20.3438 9.96773 19.7669 9.54237 19.3416C9.11701 18.9162 8.5401 18.6772 7.93855 18.6772C7.337 18.6772 6.76009 18.9162 6.33473 19.3416C5.90937 19.7669 5.67041 20.3438 5.67041 20.9454C5.67041 21.5469 5.90937 22.1238 6.33473 22.5492C6.76009 22.9746 7.337 23.2135 7.93855 23.2135ZM22.7246 7.24918C23.0077 7.24005 23.2762 7.12117 23.4732 6.91767C23.6702 6.71418 23.7804 6.44203 23.7804 6.15877C23.7804 5.87551 23.6702 5.60336 23.4732 5.39987C23.2762 5.19637 23.0077 5.07749 22.7246 5.06836H21.4193C20.3963 5.06836 19.5118 5.77829 19.2895 6.77627L17.8685 13.1747C17.6462 14.1727 16.7616 14.8826 15.7387 14.8826H7.21955L5.58422 8.33902H16.1821C16.4626 8.32623 16.7273 8.20581 16.9212 8.00283C17.1151 7.79985 17.2234 7.52992 17.2234 7.24918C17.2234 6.96844 17.1151 6.69851 16.9212 6.49553C16.7273 6.29255 16.4626 6.17213 16.1821 6.15934H5.58422C5.25269 6.15924 4.9255 6.23473 4.62753 6.38007C4.32956 6.5254 4.06864 6.73676 3.86462 6.99808C3.6606 7.25939 3.51884 7.56379 3.45012 7.88811C3.3814 8.21244 3.38753 8.54817 3.46804 8.86977L5.10337 15.4111C5.22126 15.8831 5.49359 16.3021 5.87704 16.6015C6.2605 16.9009 6.73305 17.0635 7.21955 17.0634H15.7387C16.7312 17.0636 17.6942 16.7252 18.4684 16.1041C19.2426 15.4831 19.7819 14.6165 19.9971 13.6476L21.4193 7.24918H22.7246Z" fill="white"/>
</svg>
