<svg width="99" height="35" viewBox="0 0 99 35" fill="none" xmlns="http://www.w3.org/2000/svg">
<g clip-path="url(#clip0)">
<path d="M35.0799 13.1069L27.1558 20.122H7.52996C5.69936 20.1196 3.9311 20.7764 2.55862 21.9685L12.4571 13.2034L12.6089 13.0709L25.0104 2.08094C27.01 0.310741 29.8174 -0.275129 32.375 0.544026C34.9325 1.36318 36.8518 3.46291 37.4097 6.05227C37.9677 8.64163 37.0796 11.3272 35.0799 13.0974V13.1069Z" fill="#F15B41"/>
<path d="M7.53005 15.0122C11.6888 15.0122 15.0601 11.6944 15.0601 7.6017C15.0601 3.50897 11.6888 0.191162 7.53005 0.191162C3.37132 0.191162 0 3.50897 0 7.6017C0 11.6944 3.37132 15.0122 7.53005 15.0122Z" fill="#F99D1D"/>
<path d="M7.53004 20.1221C5.69944 20.1196 3.93119 20.7764 2.55871 21.9686L2.49527 22.0253C-0.596444 24.7618 -0.848625 29.4467 1.932 32.4894C4.71263 35.532 9.47311 35.7802 12.5648 33.0437L27.1578 20.124L7.53004 20.1221Z" fill="#272560"/>
<path d="M27.1455 20.1277L12.551 33.0474C11.1691 34.2704 9.37486 34.9446 7.51639 34.9394L30.0329 34.9393C34.376 34.871 37.4424 31.6553 37.4424 27.5297C37.4424 23.4041 34.1441 20.1848 30.0329 20.1201L27.1455 20.1277Z" fill="#00B6BD"/>
<path d="M48.3589 28.7442C47.732 28.7669 47.1255 28.5236 46.6946 28.0763C46.2727 27.6248 46.0477 27.0293 46.0678 26.4172C46.0619 25.8006 46.2173 25.1929 46.5191 24.652C46.7842 24.1684 47.108 23.718 47.4833 23.3107L56.7999 12.9771H48.679C47.8922 12.9771 47.329 12.7123 47.0205 12.1863C46.72 11.658 46.5702 11.06 46.5866 10.4553C46.5649 9.87239 46.736 9.2983 47.0745 8.81877C47.4099 8.36497 47.9559 8.1075 48.5266 8.1339H62.8747C63.4813 8.10648 64.073 8.32388 64.512 8.73553C64.9189 9.13472 65.1253 9.70228 65.1253 10.4212C65.1424 10.981 65.0234 11.5368 64.7781 12.0426C64.5427 12.4832 64.2476 12.8905 63.9007 13.2534L54.1984 23.899H63.3915C63.9446 23.8855 64.4711 24.1315 64.809 24.5612C65.169 25.0416 65.3507 25.6285 65.3239 26.2242C65.3501 26.8448 65.1985 27.4603 64.8861 28.0007C64.5718 28.4944 64.0144 28.7461 63.2315 28.7461L48.3589 28.7442Z" fill="#272560"/>
<path d="M70.8973 29.0165C68.3439 29.0165 67.8117 27.73 67.8117 26.6516V10.911C67.8117 10.0881 68.0643 9.42213 68.5657 8.93213C69.0671 8.44213 69.8655 8.1924 70.9416 8.1924C71.848 8.1924 72.5654 8.39483 73.0765 8.79591C73.5875 9.197 73.871 9.84402 73.871 10.6765V26.5683C73.871 27.4329 73.5933 28.0686 73.0456 28.4602C72.4979 28.8519 71.794 29.0165 70.8973 29.0165ZM70.8973 6.50294C69.9022 6.50294 69.0864 6.21727 68.4693 5.65348C67.8522 5.0897 67.5301 4.31213 67.5301 3.35673C67.5064 2.50972 67.8456 1.69175 68.4654 1.10159C69.0768 0.513213 69.8964 0.212402 70.8973 0.212402C71.7226 0.214168 72.5249 0.479842 73.1825 0.969159C73.8999 1.48754 74.2644 2.29348 74.2644 3.36429C74.2644 4.3197 73.9481 5.09348 73.3252 5.66294C72.7023 6.2324 71.8866 6.50862 70.8973 6.50862V6.50294Z" fill="#272560"/>
<path d="M80.5282 35.0481C78.1408 35.0481 77.6355 33.7408 77.6355 32.6435V10.3776C77.6149 9.68015 77.8884 9.00528 78.3915 8.51213C78.8909 8.02212 79.6913 7.77239 80.7674 7.77239C81.4367 7.76572 82.0979 7.91621 82.6959 8.21131C83.3303 8.53104 83.6601 9.15727 83.6601 10.0559C83.7887 9.91088 83.9269 9.76205 84.0747 9.60943C84.4801 9.20581 84.9333 8.85138 85.4247 8.55375C86.6191 7.82237 88.0031 7.44404 89.4109 7.46401C90.76 7.43829 92.0966 7.72205 93.3142 8.29266C94.4285 8.83227 95.3987 9.62011 96.1472 10.5932C96.9272 11.6341 97.4967 12.8119 97.825 14.063C98.2004 15.4767 98.3846 16.9327 98.3727 18.3936C98.3864 19.8817 98.1746 21.3635 97.744 22.7904C97.3635 24.0579 96.739 25.2421 95.9042 26.2791C95.0998 27.2561 94.0806 28.042 92.9227 28.5777C91.6628 29.1445 90.2895 29.427 88.9037 29.4045C87.9757 29.4307 87.0498 29.3027 86.1652 29.0261C85.53 28.8148 84.9262 28.5215 84.3698 28.154C84.0682 27.9531 83.7901 27.7202 83.5406 27.4596V32.5299C83.5406 33.4116 83.2956 34.0624 82.8116 34.4635C82.3275 34.8646 81.5831 35.0481 80.5282 35.0481ZM87.8681 12.5078C87.211 12.4923 86.5608 12.6428 85.9801 12.9449C85.4336 13.2489 84.9653 13.6714 84.6109 14.1803C84.2127 14.756 83.9221 15.3966 83.7527 16.0722C83.5531 16.8573 83.4553 17.6639 83.4615 18.473C83.4615 20.3158 83.8472 21.7933 84.6186 22.8661C85.39 23.9388 86.4372 24.4401 87.8758 24.4401C89.3145 24.4401 90.3617 23.9028 91.0887 22.7961C91.8158 21.6893 92.2034 20.2155 92.2034 18.473C92.2058 17.6661 92.1047 16.862 91.9025 16.0798C91.7331 15.4071 91.4488 14.7674 91.0617 14.1879C90.7174 13.6783 90.2547 13.2562 89.7118 12.9562C89.1467 12.6538 88.5117 12.4994 87.8681 12.5078Z" fill="#272560"/>
</g>
<defs>
<clipPath id="clip0">
<rect width="99" height="35" fill="white"/>
</clipPath>
</defs>
</svg>
