<svg width="9" height="8" viewBox="0 0 9 8" fill="none" xmlns="http://www.w3.org/2000/svg">
<path d="M4.36081 0.173834C4.39797 0.10127 4.50168 0.10127 4.53883 0.173834L5.76524 2.56898C5.77976 2.59735 5.80694 2.61709 5.83841 2.62214L8.49531 3.04838C8.5758 3.06129 8.60785 3.15993 8.55032 3.21769L6.65138 5.12421C6.62889 5.14679 6.61851 5.17874 6.62343 5.21023L7.03908 7.8688C7.05167 7.94935 6.96777 8.01031 6.89506 7.97344L4.49504 6.75659C4.46662 6.74218 4.43303 6.74218 4.4046 6.75659L2.00459 7.97344C1.93187 8.01031 1.84797 7.94935 1.86057 7.8688L2.27621 5.21023C2.28113 5.17874 2.27075 5.14679 2.24826 5.12421L0.349327 3.21769C0.291795 3.15993 0.323843 3.06129 0.404338 3.04838L3.06124 2.62214C3.0927 2.61709 3.11988 2.59735 3.1344 2.56898L4.36081 0.173834Z" fill="#C4C4C4"/>
</svg>
