<svg width="9" height="8" viewBox="0 0 9 8" fill="none" xmlns="http://www.w3.org/2000/svg">
<path d="M4.07675 0.173834C4.1139 0.10127 4.21761 0.10127 4.25477 0.173834L5.48117 2.56898C5.4957 2.59735 5.52288 2.61709 5.55434 2.62214L8.21124 3.04838C8.29174 3.06129 8.32378 3.15993 8.26625 3.21769L6.36732 5.12421C6.34483 5.14679 6.33444 5.17874 6.33937 5.21023L6.75501 7.8688C6.76761 7.94935 6.6837 8.01031 6.61099 7.97344L4.21098 6.75659C4.18255 6.74218 4.14896 6.74218 4.12054 6.75659L1.72052 7.97344C1.64781 8.01031 1.56391 7.94935 1.5765 7.8688L1.99215 5.21023C1.99707 5.17874 1.98669 5.14679 1.9642 5.12421L0.0652614 3.21769C0.00773019 3.15993 0.0397777 3.06129 0.120272 3.04838L2.77717 2.62214C2.80864 2.61709 2.83581 2.59735 2.85034 2.56898L4.07675 0.173834Z" fill="#E9A426"/>
</svg>
