<svg width="21" height="22" viewBox="0 0 21 22" fill="none" xmlns="http://www.w3.org/2000/svg">
<path d="M10.7786 2.58539C6.17196 2.58539 2.42416 6.36019 2.42416 11V14.4862C2.42416 15.3479 3.17356 16.0488 4.09505 16.0488H4.93049C5.15207 16.0488 5.36456 15.9601 5.52124 15.8023C5.67792 15.6445 5.76594 15.4305 5.76594 15.2073V10.8797C5.76594 10.6565 5.67792 10.4425 5.52124 10.2847C5.36456 10.1269 5.15207 10.0382 4.93049 10.0382H4.17191C4.63642 6.78177 7.41844 4.26832 10.7786 4.26832C14.1387 4.26832 16.9208 6.78177 17.3853 10.0382H16.6267C16.4051 10.0382 16.1926 10.1269 16.0359 10.2847C15.8793 10.4425 15.7913 10.6565 15.7913 10.8797V16.0488C15.7913 16.9769 15.0419 17.7317 14.1204 17.7317H12.4495V16.8903H9.10771V19.4147H14.1204C15.9634 19.4147 17.4621 17.9051 17.4621 16.0488C18.3836 16.0488 19.133 15.3479 19.133 14.4862V11C19.133 6.36019 15.3852 2.58539 10.7786 2.58539Z" fill="white"/>
</svg>
