<svg width="18" height="18" viewBox="0 0 18 18" fill="none" xmlns="http://www.w3.org/2000/svg">
<g clip-path="url(#clip0)">
<path d="M17.0999 0.361455C17.0489 0.233389 16.9508 0.130078 16.826 0.073014C16.7013 0.0159503 16.5595 0.00952738 16.4301 0.0550814C16.3008 0.100635 16.1939 0.194659 16.1316 0.317592C16.0693 0.440525 16.0565 0.582902 16.0958 0.715105C16.9134 3.08164 15.2906 4.849 14.0534 5.79561L13.5535 5.07413C13.3854 4.83216 13.0097 4.63096 12.7175 4.62742L9.91209 4.63982C9.56938 4.65025 9.23584 4.75376 8.94673 4.93941L0.680008 10.7777C0.487724 10.914 0.356889 11.1215 0.31615 11.3547C0.275412 11.588 0.328089 11.828 0.462648 12.0222L4.21937 17.4359C4.50097 17.8392 4.95065 17.7905 5.35193 17.5086L13.6186 11.6694C13.8562 11.5001 14.1308 11.1349 14.2276 10.8557L15.1058 8.06819C15.2027 7.78988 15.1437 7.36532 14.9756 7.12335L14.6711 6.68373C16.3326 5.40119 18.0574 3.13482 17.0999 0.361455ZM13.2534 8.65584C13.1012 8.76321 12.9293 8.83931 12.7478 8.87978C12.5663 8.92025 12.3787 8.9243 12.1956 8.89171C12.0126 8.85911 11.8377 8.79051 11.681 8.68981C11.5243 8.58911 11.3888 8.4583 11.2822 8.30485C11.0666 7.99432 10.9821 7.6103 11.0472 7.23707C11.1124 6.86384 11.3219 6.5319 11.6298 6.31412C11.8712 6.14378 12.1594 6.05367 12.4542 6.05637C12.7489 6.05907 13.0354 6.15445 13.2737 6.32919C13.0343 6.47455 12.8698 6.55964 12.839 6.57294C12.7299 6.62532 12.6417 6.71348 12.5889 6.82295C12.536 6.93242 12.5217 7.05673 12.5482 7.17549C12.5747 7.29425 12.6404 7.40043 12.7347 7.47663C12.8289 7.55282 12.946 7.59452 13.0669 7.59489C13.1426 7.59489 13.22 7.57716 13.293 7.54259C13.4638 7.46105 13.6468 7.36444 13.8378 7.2501C13.8817 7.51606 13.8502 7.7891 13.7468 8.0378C13.6434 8.2865 13.4724 8.50073 13.2534 8.65584Z" fill="white"/>
</g>
<defs>
<clipPath id="clip0">
<rect width="17.6" height="17.7268" fill="white" transform="translate(0.0384521 0.00268555)"/>
</clipPath>
</defs>
</svg>
