<svg width="18" height="18" viewBox="0 0 18 18" fill="none" xmlns="http://www.w3.org/2000/svg">
<path d="M16.8159 0.504295H1.18395C0.808014 0.504295 0.504295 0.808014 0.504295 1.18395V16.8159C0.504295 17.1918 0.808014 17.4955 1.18395 17.4955H16.8159C17.1918 17.4955 17.4955 17.1918 17.4955 16.8159V1.18395C17.4955 0.808014 17.1918 0.504295 16.8159 0.504295ZM14.8534 5.46361H13.4962C12.4321 5.46361 12.2261 5.9691 12.2261 6.71247V8.35H14.7663L14.435 10.9136H12.2261V17.4955H9.57762V10.9157H7.36239V8.35H9.57762V6.45973C9.57762 4.26573 10.9178 3.06997 12.876 3.06997C13.8148 3.06997 14.6198 3.14006 14.8555 3.17192V5.46361H14.8534Z" fill="white"/>
</svg>
