<svg width="18" height="18" viewBox="0 0 18 18" fill="none" xmlns="http://www.w3.org/2000/svg">
<path d="M8.99997 6.13617C7.42302 6.13617 6.13611 7.42308 6.13611 9.00004C6.13611 10.577 7.42302 11.8639 8.99997 11.8639C10.5769 11.8639 11.8638 10.577 11.8638 9.00004C11.8638 7.42308 10.5769 6.13617 8.99997 6.13617ZM17.5894 9.00004C17.5894 7.8141 17.6002 6.6389 17.5336 5.45511C17.467 4.08012 17.1533 2.8598 16.1478 1.85433C15.1402 0.846717 13.922 0.535194 12.547 0.468592C11.3611 0.401991 10.1859 0.412733 9.00212 0.412733C7.81618 0.412733 6.64099 0.401991 5.4572 0.468592C4.0822 0.535194 2.86189 0.848866 1.85642 1.85433C0.8488 2.86195 0.537277 4.08012 0.470675 5.45511C0.404074 6.64105 0.414816 7.81625 0.414816 9.00004C0.414816 10.1838 0.404074 11.3612 0.470675 12.545C0.537277 13.92 0.850949 15.1403 1.85642 16.1457C2.86403 17.1534 4.0822 17.4649 5.4572 17.5315C6.64314 17.5981 7.81833 17.5873 9.00212 17.5873C10.1881 17.5873 11.3633 17.5981 12.547 17.5315C13.922 17.4649 15.1424 17.1512 16.1478 16.1457C17.1554 15.1381 17.467 13.92 17.5336 12.545C17.6023 11.3612 17.5894 10.186 17.5894 9.00004ZM8.99997 13.4065C6.5615 13.4065 4.59353 11.4385 4.59353 9.00004C4.59353 6.56156 6.5615 4.59359 8.99997 4.59359C11.4384 4.59359 13.4064 6.56156 13.4064 9.00004C13.4064 11.4385 11.4384 13.4065 8.99997 13.4065ZM13.5869 5.44222C13.0176 5.44222 12.5578 4.98246 12.5578 4.41312C12.5578 3.84379 13.0176 3.38402 13.5869 3.38402C14.1562 3.38402 14.616 3.84379 14.616 4.41312C14.6162 4.54831 14.5897 4.68221 14.538 4.80714C14.4863 4.93208 14.4105 5.04559 14.3149 5.14119C14.2194 5.23678 14.1058 5.31258 13.9809 5.36423C13.856 5.41589 13.7221 5.44239 13.5869 5.44222Z" fill="white"/>
</svg>
